<?xml version="1.0" encoding="UTF-8" standalone="no"?>
<!-- Generator: Adobe Illustrator 16.0.0, SVG Export Plug-In . SVG Version: 6.00 Build 0)  -->

<svg
   version="1.1"
   id="Layer_1"
   x="0px"
   y="0px"
   width="611.834px"
   height="706.506px"
   viewBox="0.083 42.123 611.834 706.506"
   enable-background="new 0.083 42.123 611.834 706.506"
   xml:space="preserve"
   sodipodi:docname="xmapR.svg"
   inkscape:version="1.3.2 (091e20e, 2023-11-25)"
   inkscape:export-filename="../Dropbox/WORK/PROJECTS/CROSSMAPS/conformr-xmap-project/xmap-source-files/.png"
   inkscape:export-xdpi="96"
   inkscape:export-ydpi="96"
   xmlns:inkscape="http://www.inkscape.org/namespaces/inkscape"
   xmlns:sodipodi="http://sodipodi.sourceforge.net/DTD/sodipodi-0.dtd"
   xmlns:xlink="http://www.w3.org/1999/xlink"
   xmlns="http://www.w3.org/2000/svg"
   xmlns:svg="http://www.w3.org/2000/svg"
   xmlns:rdf="http://www.w3.org/1999/02/22-rdf-syntax-ns#"
   xmlns:cc="http://creativecommons.org/ns#"
   xmlns:dc="http://purl.org/dc/elements/1.1/"><metadata
   id="metadata57"><rdf:RDF><cc:Work
       rdf:about=""><dc:format>image/svg+xml</dc:format><dc:type
         rdf:resource="http://purl.org/dc/dcmitype/StillImage" /></cc:Work></rdf:RDF></metadata><defs
   id="defs55"><linearGradient
     id="swatch14"
     inkscape:swatch="solid"><stop
       style="stop-color:#b22a55;stop-opacity:1;"
       offset="0"
       id="stop14" /></linearGradient><linearGradient
     id="swatch13"
     inkscape:swatch="solid"><stop
       style="stop-color:#cf3566;stop-opacity:1;"
       offset="0"
       id="stop13" /></linearGradient><linearGradient
     id="swatch12"
     inkscape:swatch="solid"><stop
       style="stop-color:#cf3566;stop-opacity:1;"
       offset="0"
       id="stop12" /></linearGradient><linearGradient
     id="swatch2"
     inkscape:swatch="solid"><stop
       style="stop-color:#b22a55;stop-opacity:1;"
       offset="0"
       id="stop2" /></linearGradient><filter
     inkscape:label="Fill Background"
     inkscape:menu="Fill and Transparency"
     inkscape:menu-tooltip="Adds a colorizable opaque background"
     style="color-interpolation-filters:sRGB;"
     id="filter2"
     x="0"
     y="0"
     width="1"
     height="1"><feFlood
       result="result1"
       flood-color="rgb(200,55,55)"
       flood-opacity="1"
       id="feFlood1" /><feImage
       xlink:href=""
       result="result2"
       id="feImage1" /><feBlend
       result="result4"
       in2="result1"
       mode="multiply"
       id="feBlend1" /><feMerge
       result="result3"
       id="feMerge2"><feMergeNode
         in="result1"
         id="feMergeNode1" /><feMergeNode
         in="SourceGraphic"
         id="feMergeNode2" /></feMerge></filter><linearGradient
     inkscape:collect="always"
     xlink:href="#swatch13"
     id="linearGradient11"
     gradientUnits="userSpaceOnUse"
     x1="125.4505"
     y1="450.41998"
     x2="208.23099"
     y2="450.41998" /><linearGradient
     inkscape:collect="always"
     xlink:href="#swatch13"
     id="linearGradient12"
     x1="126.69355"
     y1="272.49847"
     x2="209.47403"
     y2="272.49847"
     gradientUnits="userSpaceOnUse" /><linearGradient
     inkscape:collect="always"
     xlink:href="#swatch13"
     id="linearGradient13"
     x1="126.55858"
     y1="361.45923"
     x2="209.33907"
     y2="361.45923"
     gradientUnits="userSpaceOnUse" /><linearGradient
     inkscape:collect="always"
     xlink:href="#swatch13"
     id="linearGradient14"
     x1="422.52158"
     y1="298.54092"
     x2="496.44284"
     y2="298.54092"
     gradientUnits="userSpaceOnUse" /><linearGradient
     inkscape:collect="always"
     xlink:href="#swatch13"
     id="linearGradient15"
     x1="421.63354"
     y1="433.14139"
     x2="495.55481"
     y2="433.14139"
     gradientUnits="userSpaceOnUse" /></defs><sodipodi:namedview
   pagecolor="#ffffff"
   bordercolor="#666666"
   borderopacity="1"
   objecttolerance="10"
   gridtolerance="10"
   guidetolerance="10"
   inkscape:pageopacity="0"
   inkscape:pageshadow="2"
   inkscape:window-width="1280"
   inkscape:window-height="800"
   id="namedview53"
   showgrid="false"
   showguides="true"
   inkscape:zoom="0.36396765"
   inkscape:cx="372.28583"
   inkscape:cy="-48.081196"
   inkscape:window-x="0"
   inkscape:window-y="32"
   inkscape:window-maximized="0"
   inkscape:current-layer="Layer_1"
   inkscape:pagecheckerboard="0"
   inkscape:showpageshadow="2"
   inkscape:deskcolor="#d1d1d1"><inkscape:grid
     type="xygrid"
     id="grid888"
     originx="0"
     originy="0"
     spacingy="1"
     spacingx="1"
     units="px"
     visible="false" /></sodipodi:namedview>
<polygon
   id="fill"
   points="611.917,218.728 611.917,572.024 306,748.629 0.083,572.021 0.083,218.728 306,42.123 "
   fill="#1FA67A"
   style="fill:#7896c3;fill-opacity:1;stroke:#000000;stroke-opacity:1"
   transform="matrix(0.99662147,0,0,0.98964117,0.915923,1.6011732)" />
<linearGradient
   id="gradient_1_"
   gradientUnits="userSpaceOnUse"
   x1="305.6709"
   y1="404.7256"
   x2="305.6709"
   y2="134.4175"
   gradientTransform="matrix(1 0 0 1 0 -80)">
	<stop
   offset="0"
   style="stop-color:#FFFFFF;stop-opacity:0"
   id="stop3" />
	<stop
   offset="1"
   style="stop-color:#FFFFFF"
   id="stop5" />
</linearGradient>
<path
   id="gradient"
   opacity="0.2"
   fill="url(#gradient_1_)"
   d="M 305.591,54.417 59.22,197.048 c 36.979,74.535 133.292,127.677 246.28,127.677 113.336,0 209.895,-53.47 246.621,-128.366 z"
   style="display:none" />

<path
   id="outline"
   d="M 587.52,204.656 356.209,71.099 306,42.123 255.791,71.099 24.48,204.656 0.083,218.728 V 572.021 L 24.479,586.092 258.621,721.317 306,748.629 353.378,721.317 587.52,586.095 611.917,572.025 V 218.728 Z m 0,354.127 L 306,721.317 24.48,558.783 V 233.633 L 306,71.099 v 0 l 281.52,162.534 z"
   fill="#1B926C"
   style="display:inline;fill:#1a125e;fill-opacity:1;stroke-width:1" />









<g
   id="g886"
   transform="matrix(1.933181,0,0,1.933181,275.43211,181.81662)"
   style="fill:#1a125e;fill-opacity:1"
   inkscape:label="xmap-text">

<text
   xml:space="preserve"
   style="font-style:normal;font-variant:normal;font-weight:bold;font-stretch:normal;font-size:58.5952px;line-height:30.5;font-family:Futura;-inkscape-font-specification:'Futura, Bold';font-variant-ligatures:normal;font-variant-caps:normal;font-variant-numeric:normal;font-variant-east-asian:normal;letter-spacing:0px;word-spacing:2.53655px;fill:#1a125e;fill-opacity:1;stroke-width:1.21366"
   x="-74.924881"
   y="203.60916"
   id="text2294"><tspan
     sodipodi:role="line"
     id="tspan1"
     x="-74.924881"
     y="203.60916"
     style="fill:#1a125e;fill-opacity:1;stroke-width:1.21366">xmap</tspan></text></g><g
   id="g1"
   inkscape:label="graph-logo"
   style="display:inline"
   transform="translate(-1.0352146,-18)"><circle
     style="opacity:1;fill:url(#linearGradient13);fill-opacity:1;stroke:#3f377d;stroke-width:15;stroke-dasharray:none;stroke-opacity:1"
     id="path95"
     cx="167.94882"
     cy="361.45923"
     r="33.89024"
     sodipodi:insensitive="true"
     inkscape:label="path95-circles" /><circle
     style="fill:url(#linearGradient12);fill-opacity:1;stroke:#3f377d;stroke-width:15;stroke-dasharray:none;stroke-opacity:1"
     id="path95-0"
     cx="168.08379"
     cy="272.49847"
     r="33.89024"
     sodipodi:insensitive="true"
     inkscape:label="path95-0-circles" /><circle
     style="display:inline;fill:url(#linearGradient11);fill-opacity:1;stroke:#3f377d;stroke-width:15;stroke-dasharray:none;stroke-opacity:1"
     id="path95-8"
     cx="166.84074"
     cy="450.41998"
     r="33.89024"
     sodipodi:insensitive="true"
     inkscape:label="path95-8-circles" /><path
     style="display:inline;fill:#3f377d;fill-opacity:1"
     d="m -206.86152,347.20527 c -0.36831,-1.01665 -1.76336,-10.63283 -1.58078,-10.89639 0.10772,-0.15549 1.90123,-0.61672 3.98559,-1.02495 2.08436,-0.40822 6.78198,-1.62437 10.43914,-2.70255 3.87594,-1.14267 6.77025,-1.83104 6.93913,-1.65037 0.15935,0.17048 1.4005,2.43243 2.7581,5.02657 l 2.46836,4.71662 -0.79444,0.51793 c -1.04337,0.68023 -12.71235,4.1637 -17.42346,5.20132 -5.57776,1.22851 -6.59657,1.35029 -6.79164,0.81182 z"
     id="path86"
     transform="translate(588.92232,-3.908427)" /><path
     style="display:inline;fill:#3f377d;fill-opacity:1"
     d="m -243.78253,350.7727 c -0.22204,-0.1427 -0.46935,-2.4685 -0.61574,-5.79065 -0.27709,-6.28826 -0.404,-5.98934 2.54268,-5.98934 0.90642,0 3.9378,-0.31007 6.73641,-0.68904 3.0179,-0.40867 7.01418,-0.68905 9.82121,-0.68905 h 4.73284 l 0.24891,5.49254 c 0.1369,3.0209 0.16126,5.63436 0.0541,5.80769 -0.10713,0.17333 -2.64111,0.40348 -5.63107,0.51144 -2.98996,0.10795 -7.14167,0.4289 -9.22603,0.7132 -5.08602,0.69374 -8.21349,0.92233 -8.66335,0.63321 z"
     id="path85"
     transform="translate(588.92232,-3.908427)" /><path
     style="display:inline;fill:#3f377d;fill-opacity:1"
     d="m -279.04576,356.10997 c 0,-0.0599 -0.69822,-2.49336 -1.5516,-5.40776 -0.85337,-2.91439 -1.43475,-5.40803 -1.29195,-5.54142 0.45415,-0.42423 7.03413,-2.40903 10.25078,-3.09208 3.67068,-0.77945 13.48197,-1.9394 13.79093,-1.63044 0.11856,0.11856 0.51778,2.65949 0.88715,5.64651 0.47806,3.866 0.56304,5.49802 0.29489,5.66374 -0.20718,0.12805 -2.18802,0.42304 -4.40187,0.65554 -5.34745,0.56159 -9.85169,1.45407 -13.8797,2.75016 -3.07181,0.98841 -4.09863,1.22785 -4.09863,0.95575 z"
     id="path84"
     transform="translate(588.92232,-3.908427)" /><path
     style="display:inline;fill:#3f377d;fill-opacity:1"
     d="m -267.33201,393.38194 c -1.78773,-0.71841 -10.54539,-2.71345 -15.08764,-3.43704 -2.59731,-0.41376 -4.84735,-0.86243 -5.00009,-0.99705 -0.33146,-0.29215 1.05204,-10.71891 1.47995,-11.15363 0.58357,-0.59286 10.90277,1.28201 18.95231,3.4434 2.55807,0.68688 4.78766,1.37433 4.95463,1.52769 0.17143,0.15745 -0.41464,2.61372 -1.34634,5.64262 -1.78231,5.79417 -1.81367,5.83364 -3.95282,4.97401 z"
     id="path80"
     transform="translate(588.92232,-3.908427)" /><path
     style="display:inline;fill:#3f377d;fill-opacity:1"
     d="m 295.44531,354.73597 c -1.92656,-0.0215 -10.81178,1.29367 -15.3074,2.2658 -2.57064,0.55587 -4.83029,0.95332 -5.02144,0.88323 -0.41482,-0.15213 -2.90498,-10.37126 -2.66376,-10.93152 0.32898,-0.76408 10.62598,-2.7573 18.91153,-3.66077 2.63308,-0.2871 4.96022,-0.4546 5.17143,-0.3722 0.21684,0.0846 0.561,2.58626 0.7906,5.74689 0.43922,6.04617 0.4243,6.09432 -1.88096,6.06857 z"
     id="path80-5"
     inkscape:transform-center-x="0.27919206"
     inkscape:transform-center-y="0.49090933" /><path
     style="display:inline;fill:#3f377d;fill-opacity:1"
     d="m -351.18514,369.05227 c -0.49496,-1.65171 -2.27741,-9.54179 -2.27741,-10.08105 0,-0.5152 0.90771,-0.83154 5.42622,-1.8911 2.98442,-0.69982 8.20638,-1.95508 11.60434,-2.78946 3.39796,-0.83438 6.60485,-1.51706 7.12641,-1.51706 1.67664,0 2.71576,0.58675 2.71576,1.53349 0,0.47383 0.30949,1.36912 0.68775,1.98953 1.207,1.97966 0.7345,5.42101 -0.95026,6.92098 -0.68646,0.61117 -1.1132,0.7658 -1.25898,0.83968 -0.17491,0.0887 -0.81528,0.35141 -1.33972,0.49465 -0.58719,0.16038 -1.78674,0.6515 -2.38813,0.79468 -11.88557,2.8299 -18.29739,4.30857 -18.68282,4.30857 -0.26537,0 -0.56379,-0.27131 -0.66316,-0.60291 z"
     id="path82"
     transform="translate(588.92232,-3.908427)" /><path
     style="display:inline;fill:#3f377d;fill-opacity:1"
     d="m -323.52917,386.88301 c -0.36588,-0.592 -0.6788,-9.76278 -0.51222,-10.19688 0.41578,-1.08351 9.54372,-1.67138 12.42876,-1.31701 6.31791,0.77602 12.45754,0.26102 12.67058,0.4567 0.30015,0.27569 -1.09327,10.73583 -1.48988,11.18428 -0.15013,0.16974 -2.49428,-0.019 -5.3742,-0.43262 -4.47316,-0.0328 -12.41905,0.59036 -15.5187,1.16975 -0.23872,0.0446 -2.10661,-0.70624 -2.20434,-0.86422 z"
     id="path81"
     transform="translate(588.92232,-3.908427)"
     sodipodi:nodetypes="csssscsc" /><path
     style="display:inline;fill:#3f377d;fill-opacity:1"
     d="m -235.11918,403.56513 c -3.00677,-1.47209 -9.94385,-3.89734 -14.76229,-5.161 -1.29772,-0.34033 -2.44226,-0.83449 -2.54343,-1.09813 -0.20293,-0.52882 2.25021,-10.05113 2.728,-10.58924 1.10031,-1.23921 23.36303,6.8997 23.36303,8.54116 0,0.8324 -4.85105,9.88488 -5.28065,9.85417 -0.22218,-0.0159 -1.79928,-0.71202 -3.50466,-1.54696 z"
     id="path78"
     transform="translate(588.92232,-3.908427)" /><path
     style="display:inline;fill:#3f377d;fill-opacity:1"
     d="m -201.52827,419.11136 c -2.36859,-0.80348 -5.39177,-1.89052 -6.71818,-2.41566 -4.08622,-1.61777 -11.54149,-5.28632 -11.54149,-5.67926 0,-0.6188 4.80548,-10.00974 5.12213,-10.00974 0.16182,0 1.98245,0.79111 4.04584,1.75802 4.53761,2.12634 9.15119,3.97022 13.65662,5.45806 1.8475,0.6101 3.35978,1.29028 3.36061,1.51152 0.003,0.82631 -2.85226,10.06436 -3.22795,10.44339 -0.29337,0.29598 -1.46676,0.0296 -4.69758,-1.06633 z"
     id="path77"
     transform="translate(588.92232,-3.908427)" /><path
     style="display:inline;fill:#3f377d;fill-opacity:1;stroke-width:1.22709"
     d="m 271.37039,460.66203 c 55.83966,-11.40714 54.67167,-42.629 117.70528,-40.60204 l 9.36063,0.30101 c 1.6912,1.78374 2.47976,3.57429 1.54525,6.36401 -0.8021,1.89809 -2.33637,2.36465 -7.80755,2.37421 -7.51477,0.0136 -28.05527,2.23435 -32.37731,3.81009 -53.95573,19.67121 -39.37932,29.06996 -86.70654,38.29478 -13.15366,2.56387 -21.65197,3.31261 -37.24737,2.3965 -28.85792,-8.72342 26.29565,-11.19451 35.52761,-12.93856 z"
     id="path76"
     sodipodi:nodetypes="sscscssss" /><rect
     style="fill:#3f377d;fill-opacity:1;stroke:url(#linearGradient14);stroke-width:14.157;stroke-linecap:round;stroke-linejoin:round;stroke-dasharray:none;stroke-opacity:1;paint-order:normal"
     id="rect1"
     width="59.764259"
     height="59.764259"
     x="429.60007"
     y="268.65878" /><rect
     style="fill:#3f377d;fill-opacity:1;stroke:url(#linearGradient15);stroke-width:14.157;stroke-linecap:round;stroke-linejoin:round;stroke-dasharray:none;stroke-opacity:1;paint-order:normal"
     id="rect1-5"
     width="59.764259"
     height="59.764259"
     x="428.71204"
     y="403.25925" /><path
     style="display:inline;fill:#3f377d;fill-opacity:1;stroke-width:1.08186"
     d="m 378.09195,322.60606 c -11.12792,-0.70446 -17.94838,-2.37357 -27.07117,-6.62488 -13.28989,-6.19323 -21.2138,-12.07109 -26.59735,-19.72961 -1.25638,-1.78731 -5.08216,-6.51587 -8.50173,-10.50792 -14.94266,-17.44427 -41.34274,-24.97131 -79.25611,-22.81683 -5.54446,0.31508 -6.31088,0.28005 -7.23496,-0.33071 -1.32819,-0.87787 -1.85589,-3.0084 -1.16629,-4.7088 1.28615,-3.17135 4.95343,-3.73976 26.14415,-4.05224 17.48882,-0.2579 53.54428,0.34585 76.81599,34.93283 4.28974,6.37552 10.64585,11.08369 22.58743,16.73125 2.50182,1.18319 5.77132,2.60305 7.26557,3.15526 5.25711,1.94278 15.70704,3.48236 23.86882,3.51659 24.50157,0.10253 27.05208,8.49477 3.46995,10.75468 z"
     id="path87"
     inkscape:label="path87-connection"
     sodipodi:insensitive="true"
     sodipodi:nodetypes="cssssssssssscc" /></g></svg>
